<?xml version="1.0" encoding="UTF-8"?>
<svg width="17px" height="17px" viewBox="0 0 17 17" version="1.1" xmlns="http://www.w3.org/2000/svg" xmlns:xlink="http://www.w3.org/1999/xlink">
    <!-- Generator: Sketch 3.8.3 (29802) - http://www.bohemiancoding.com/sketch -->
    <title>cart</title>
    <desc>Created with Sketch.</desc>
    <defs></defs>
    <g id="Symbols" stroke="none" stroke-width="1" fill="none" fill-rule="evenodd">
        <g id="HEADER" transform="translate(-1173.000000, -6.000000)" fill="#FF0092">
            <g id="cart" transform="translate(1173.500000, 6.000000)">
                <path d="M15.7812857,4.21813209 C15.6712857,4.08131158 15.5137143,4.003108 15.3485714,4.003108 L12.2857143,4.003108 L12.2857143,5.71872572 C12.2857143,6.50705206 11.6448571,7.14840715 10.8571429,7.14840715 C10.0694286,7.14840715 9.42857143,6.50705206 9.42857143,5.71872572 L9.42857143,4.003108 L6.57142857,4.003108 L6.57142857,5.71872572 C6.57142857,6.50705206 5.93057143,7.14840715 5.14285714,7.14840715 C4.35514286,7.14840715 3.71428571,6.50705206 3.71428571,5.71872572 L3.71428571,4.003108 L0.651571429,4.003108 C0.486285714,4.003108 0.328714286,4.08131158 0.218714286,4.21813209 C0.108571429,4.3549526 0.0564285714,4.53737995 0.0752857143,4.71952137 L1.10314286,14.6942657 C1.12228571,15.8188531 1.95328571,16.7272727 2.97214286,16.7272727 L13.028,16.7272727 C14.0467143,16.7272727 14.8777143,15.8188531 14.897,14.6941228 L15.9248571,4.7193784 C15.9435714,4.53737995 15.8914286,4.3549526 15.7812857,4.21813209 L15.7812857,4.21813209 Z" id="Shape"></path>
                <path d="M5.14285714,6.29059829 C5.458,6.29059829 5.71428571,6.03411344 5.71428571,5.71872572 L5.71428571,2.57342657 C5.71428571,1.69031235 6.60414286,1.14374514 7.42857143,1.14374514 L8.85714286,1.14374514 C9.72485714,1.14374514 10.2857143,1.7048951 10.2857143,2.57342657 L10.2857143,5.71872572 C10.2857143,6.03411344 10.5421429,6.29059829 10.8571429,6.29059829 C11.1721429,6.29059829 11.4285714,6.03411344 11.4285714,5.71872572 L11.4285714,2.57342657 C11.4285714,1.08226884 10.3471429,0 8.85714286,0 L7.42857143,0 C5.85314286,0 4.57142857,1.15446775 4.57142857,2.57342657 L4.57142857,5.71872572 C4.57142857,6.03411344 4.82771429,6.29059829 5.14285714,6.29059829 L5.14285714,6.29059829 Z" id="Shape"></path>
            </g>
        </g>
    </g>
</svg>