<?xml version="1.0" encoding="UTF-8"?>
<svg width="205px" height="46px" viewBox="0 0 205 46" version="1.1" xmlns="http://www.w3.org/2000/svg" xmlns:xlink="http://www.w3.org/1999/xlink">
    <!-- Generator: Sketch 3.8.3 (29802) - http://www.bohemiancoding.com/sketch -->
    <title>exclaim_logo_1</title>
    <desc>Created with Sketch.</desc>
    <defs>
        <polygon id="path-1" points="0.0349431818 0.000582278481 204.52652 0.000582278481 204.52652 45.9650633 0.0349431818 45.9650633"></polygon>
    </defs>
    <g id="Symbols" stroke="none" stroke-width="1" fill="none" fill-rule="evenodd">
        <g id="HEADER" transform="translate(-634.000000, -54.000000)">
            <g id="exclaim_logo_1" transform="translate(633.000000, 54.000000)">
                <g id="Group-4" transform="translate(1.000000, 0.000000)">
                    <mask id="mask-2" fill="white">
                        <use xlink:href="#path-1"></use>
                    </mask>
                    <g id="Clip-2"></g>
                    <path d="M164.414659,3.69339241 C164.221889,4.45850633 163.839844,4.99420253 163.265611,5.30106329 C162.843963,5.56891139 162.442699,5.68303797 162.060071,5.64460759 C161.867884,5.64460759 161.676861,5.62597468 161.48642,5.5875443 C160.911023,5.43498734 160.489375,5.0518481 160.223224,4.43929114 C160.070057,4.01888608 159.993182,3.57810127 159.993182,3.11926582 C159.993182,2.88926582 160.012401,2.66043038 160.050838,2.43043038 C160.165568,1.74159494 160.489375,1.12903797 161.026335,0.593924051 C161.371108,0.211367089 161.792173,0.0186329114 162.289531,0.0186329114 C162.442699,-0.0186329114 162.634304,0.00058227848 162.864347,0.076278481 C163.552145,0.269012658 164.031449,0.727848101 164.299929,1.45394937 C164.451932,1.87551899 164.529389,2.31572152 164.529389,2.77455696 C164.529389,3.082 164.490369,3.3876962 164.414659,3.69339241 L164.414659,3.69339241 Z M158.442869,16.8383291 C158.787642,15.9206582 159.437585,15.4606582 160.395611,15.4606582 L160.682145,15.4606582 C161.753736,15.5753671 162.193438,16.2269367 162.002997,17.413038 C161.658807,19.0975696 161.294233,21.1064304 160.911023,23.4407848 C160.528977,25.774557 160.202841,28.1479241 159.935526,30.558557 C159.513878,34.1558734 159.304219,37.4096456 159.304219,40.3175443 C159.341491,43.2260253 159.840014,44.7946835 160.797457,45.0246835 C161.792173,45.2931139 162.843963,45.1015443 163.954574,44.4499747 C165.064602,43.8001519 166.15483,42.8813165 167.228168,41.6952152 C168.834972,39.9728354 170.28919,37.9837722 171.591406,35.7245316 C172.85402,33.467038 173.734588,31.668962 174.231946,30.328557 C174.461406,30.2528608 174.710668,30.2144304 174.978565,30.2144304 C175.245881,30.2144304 175.475341,30.2528608 175.667528,30.328557 C175.245881,31.3248354 174.729304,32.4527089 174.117216,33.7150886 C173.505128,35.0170633 172.796946,36.2992405 171.99267,37.5622025 C170.461577,39.9728354 168.720241,42.0777722 166.768082,43.8758481 C165.236989,45.2931139 163.667457,46 162.060071,46 C161.601151,46 161.141065,45.9423544 160.682145,45.8276456 C159.954744,45.6360759 159.341491,45.253519 158.845298,44.6799747 C158.346776,44.1058481 157.926293,43.3797468 157.582102,42.4981772 C157.007287,40.8916709 156.663097,38.8822278 156.548366,36.4710127 C156.509929,35.7443291 156.49071,34.9792152 156.49071,34.1750886 C156.49071,32.4917215 156.567585,30.7501266 156.720753,28.9503038 C156.911193,26.8081013 157.160455,24.6839494 157.467372,22.5790127 C157.773125,20.4752405 158.098679,18.5607089 158.442869,16.8383291 L158.442869,16.8383291 Z" id="Fill-1" fill="#0A0A08" mask="url(#mask-2)"></path>
                    <polyline id="Fill-3" fill="#0A0A08" mask="url(#mask-2)" points="0 4.28731646 11.0158381 4.28731646 11.0158381 8.24389873 4.17105114 8.24389873 4.17105114 19.9523544 8.55642045 19.9523544 8.55642045 23.909519 4.17105114 23.909519 4.17105114 37.7572658 11.0158381 37.7572658 11.0158381 41.7132658 0 41.7132658 0 4.28731646"></polyline>
                </g>
                <polyline id="Fill-5" fill="#0A0A08" points="41.4793466 41.7132658 38.2703977 30.3786329 38.0560795 28.8815949 37.9495028 28.8815949 37.7351847 30.3786329 34.5262358 41.7132658 29.9277131 41.7132658 35.9169744 22.0374937 30.5159233 4.28731646 35.1150284 4.28731646 37.8423438 14.8195696 37.9495028 15.9957722 38.0560795 15.9957722 38.1632386 14.8195696 40.8899716 4.28731646 45.4902415 4.28731646 40.0880256 21.9845063 46.0772869 41.7132658 41.4793466 41.7132658"></polyline>
                <path d="M73.2933665,37.3292911 C73.6672585,36.687038 73.7208381,35.6721266 73.7208381,33.7471139 L73.7208381,27.5988354 L77.8918892,27.5988354 L77.8918892,33.9078228 C77.8918892,37.1161772 77.3042614,38.8263291 76.663054,39.7894177 C75.9676847,40.8054937 74.4703693,42.2483797 71.581733,42.2483797 C68.855,42.2483797 67.3041051,40.8054937 66.5551562,39.7352658 C65.1114205,37.6501266 65.165,34.6560506 65.165,32.7851899 L65.165,12.2540506 C65.165,10.0617722 65.2179972,7.92306329 66.5551562,6.10460759 C67.3041051,5.0896962 68.9079972,3.75278481 71.7960511,3.75278481 C73.6142614,3.75278481 75.3258949,4.3403038 76.501733,5.94448101 C78.0520455,8.02962025 77.8918892,11.0236962 77.8918892,12.788 L77.8918892,16.9052911 L73.9351562,16.9052911 L73.9351562,11.290962 C73.9351562,10.4361772 73.9351562,9.20582278 73.346946,8.45759494 C73.0260511,8.08377215 72.4908381,7.70878481 71.6358949,7.70878481 C70.7797869,7.70878481 70.2451562,8.08377215 69.9242614,8.45759494 C69.3360511,9.20582278 69.3360511,10.4361772 69.3360511,11.290962 L69.3360511,33.7471139 C69.3360511,35.6721266 69.3890483,36.687038 69.7635227,37.3292911 C69.9242614,37.6501266 70.4594744,38.2923797 71.5287358,38.2923797 C72.5979972,38.2923797 73.1332102,37.6501266 73.2933665,37.3292911" id="Fill-6" fill="#0A0A08"></path>
                <polyline id="Fill-7" fill="#0A0A08" points="98.2096023 41.7132658 98.2096023 4.28731646 102.380653 4.28731646 102.380653 37.7572658 109.27902 37.7572658 109.27902 41.7132658 98.2096023 41.7132658"></polyline>
                <path d="M136.389105,30.8595949 L134.462571,12.3606076 L134.356577,12.307038 L132.431207,30.8595949 L136.389105,30.8595949 L136.389105,30.8595949 Z M137.511364,41.7132658 L136.762997,34.8161772 L132.057315,34.8161772 L131.307784,41.7132658 L127.030156,41.7132658 L131.735838,4.28731646 L137.08331,4.28731646 L141.788991,41.7132658 L137.511364,41.7132658 L137.511364,41.7132658 Z" id="Fill-8" fill="#0A0A08"></path>
                <polyline id="Fill-9" fill="#0A0A08" points="194.296946 41.7132658 190.125895 11.3981013 189.965739 11.3981013 190.339631 16.3701772 190.339631 41.7132658 186.167997 41.7132658 186.167997 4.28731646 192.585313 4.28731646 195.794261 28.346481 195.900838 28.346481 199.109787 4.28731646 205.52652 4.28731646 205.52652 41.7132658 201.355469 41.7132658 201.355469 16.3701772 201.729361 11.3981013 201.569205 11.3981013 197.398153 41.7132658 194.296946 41.7132658"></polyline>
            </g>
        </g>
    </g>
</svg>