<?xml version="1.0" encoding="UTF-8"?>
<svg width="16px" height="16px" viewBox="0 0 16 16" version="1.1" xmlns="http://www.w3.org/2000/svg" xmlns:xlink="http://www.w3.org/1999/xlink">
    <!-- Generator: Sketch 3.8.3 (29802) - http://www.bohemiancoding.com/sketch -->
    <title>instagram</title>
    <desc>Created with Sketch.</desc>
    <defs></defs>
    <g id="Symbols" stroke="none" stroke-width="1" fill="none" fill-rule="evenodd">
        <g id="HEADER" transform="translate(-378.000000, -65.000000)" fill="#1A1A1A">
            <path d="M390.907859,65 L381.092141,65 C379.387123,65 378,66.3868001 378,68.0918186 L378,71.3579151 L378,77.9078586 C378,79.6128772 379.387123,80.9996773 381.092141,80.9996773 L390.908181,80.9996773 C392.6132,80.9996773 394,79.6128772 394,77.9078586 L394,71.3575924 L394,68.0914959 C393.999677,66.3864773 392.612877,65 390.907859,65 L390.907859,65 Z M391.794739,66.8437954 L392.148459,66.8425044 L392.148459,67.1946103 L392.148459,69.5544618 L389.445538,69.5631757 L389.436179,66.8515411 L391.794739,66.8437954 L391.794739,66.8437954 Z M383.716314,71.3575924 C384.22882,70.6485396 385.06019,70.1834759 386,70.1834759 C386.93981,70.1834759 387.77118,70.6485396 388.28304,71.3575924 C388.616427,71.820397 388.816201,72.3864773 388.816201,72.9996773 C388.816201,74.552364 387.551719,75.8155559 385.999677,75.8155559 C384.446668,75.8155559 383.183476,74.552364 383.183476,72.9996773 C383.183799,72.3864773 383.382927,71.820397 383.716314,71.3575924 L383.716314,71.3575924 Z M392.440858,77.9075359 C392.440858,78.7534291 391.753106,79.4405357 390.907859,79.4405357 L381.092141,79.4405357 C380.246571,79.4405357 379.558819,78.7534291 379.558819,77.9075359 L379.558819,71.3575924 L381.947071,71.3575924 C381.740842,71.8649346 381.62498,72.4190737 381.62498,72.9996773 C381.62498,75.4114894 383.58722,77.3750202 386,77.3750202 C388.412458,77.3750202 390.374697,75.4114894 390.374697,72.9996773 C390.374697,72.4190737 390.258189,71.8649346 390.051961,71.3575924 L392.440858,71.3575924 L392.440858,77.9075359 L392.440858,77.9075359 Z" id="instagram"></path>
        </g>
    </g>
</svg>